<svg width="40" height="32" viewBox="0 0 40 32" fill="none" xmlns="http://www.w3.org/2000/svg">
<g clip-path="url(#clip0)">
<ellipse cx="34" cy="16" rx="7" ry="2" transform="rotate(-90 34 16)" fill="#1A1A1A"/>
<ellipse cx="38" cy="16" rx="7" ry="2" transform="rotate(-90 38 16)" fill="#1A1A1A"/>
<rect x="34" y="23" width="14" height="4" transform="rotate(-90 34 23)" fill="#1A1A1A"/>
<rect x="30" y="20" width="8" height="4" transform="rotate(-90 30 20)" fill="#1A1A1A"/>
<circle cx="16" cy="16" r="16" transform="rotate(-90 16 16)" fill="#8C8C8C"/>
<circle cx="16" cy="16" r="13" transform="rotate(-90 16 16)" fill="#3E3E3E"/>
<rect x="3" y="18" width="4" height="18" transform="rotate(-90 3 18)" fill="#8C8C8C"/>
<ellipse cx="23.5" cy="16" rx="13" ry="6.5" transform="rotate(-90 23.5 16)" fill="#8C8C8C"/>
<ellipse cx="27.232" cy="9.66987" rx="5" ry="2" transform="rotate(-120 27.232 9.66987)" fill="#C3C3C3"/>
<ellipse cx="27.232" cy="21.6699" rx="5" ry="2" transform="rotate(-60 27.232 21.6699)" fill="#C3C3C3"/>
</g>
<defs>
<clipPath id="clip0">
<rect width="32" height="40" fill="white" transform="translate(0 32) rotate(-90)"/>
</clipPath>
</defs>
</svg>
