<svg width="3737" height="2595" viewBox="0 0 3737 2595" fill="none" xmlns="http://www.w3.org/2000/svg">
    <path fill-rule="evenodd" clip-rule="evenodd" d="M0 0V2595H3737V0H0Z" fill="#537C1E"/>
    <path d="M1030 540V704H1536V636H2013V1474H540V636H658V540H1030Z" fill="#88551A"/>
    <rect x="1228" y="1474" width="136" height="1121" fill="#7D7D7D"/>
    <circle cx="844" cy="822" r="70" fill="#592B01"/>
    <rect x="552" y="1000" width="273" height="60" fill="#592B01"/>
    <rect x="670" y="552" width="118" height="60" fill="#592B01"/>
    <rect x="900" y="552" width="118" height="60" fill="#592B01"/>
    <rect x="552" y="648" width="94" height="60" fill="#592B01"/>
    <rect x="612" y="1402" width="161" height="60" fill="#592B01"/>
    <rect x="552" y="1060" width="60" height="402" fill="#592B01"/>
    <rect x="985" y="1280" width="67" height="83" fill="#8C8C8C"/>
    <rect x="985" y="1378" width="67" height="83" fill="#8C8C8C"/>
    <rect x="1326" y="843" width="395" height="107" fill="#592B01"/>
    <rect x="1939" y="1396" width="62" height="66" fill="#592B01"/>
    <rect x="1664" y="1396" width="66" height="66" fill="#592B01"/>
    <rect x="785" y="1317" width="66" height="145" fill="#8C8C8C"/>
    <rect x="1646" y="785" width="50" height="50" fill="#513514"/>
    <rect x="1648" y="787" width="46" height="10" fill="#9B8309"/>
    <rect x="1696" y="1008" width="50" height="50" transform="rotate(180 1696 1008)" fill="#513514"/>
    <rect x="1694" y="1006" width="46" height="10" transform="rotate(180 1694 1006)" fill="#9B8309"/>
    <rect x="1624" y="1008" width="50" height="50" transform="rotate(180 1624 1008)" fill="#513514"/>
    <rect x="1622" y="1006" width="46" height="10" transform="rotate(180 1622 1006)" fill="#9B8309"/>
    <rect x="1549" y="1008" width="50" height="50" transform="rotate(180 1549 1008)" fill="#513514"/>
    <rect x="1547" y="1006" width="46" height="10" transform="rotate(180 1547 1006)" fill="#9B8309"/>
    <rect x="1474" y="1007" width="50" height="50" transform="rotate(180 1474 1007)" fill="#513514"/>
    <rect x="1472" y="1005" width="46" height="10" transform="rotate(180 1472 1005)" fill="#9B8309"/>
    <rect x="1779" y="871" width="50" height="50" transform="rotate(90 1779 871)" fill="#513514"/>
    <rect x="1777" y="873" width="46" height="10" transform="rotate(90 1777 873)" fill="#9B8309"/>
    <rect x="1399" y="1007" width="50" height="50" transform="rotate(-180 1399 1007)" fill="#513514"/>
    <rect x="1397" y="1005" width="46" height="10" transform="rotate(-180 1397 1005)" fill="#9B8309"/>
    <rect x="1268" y="921" width="50" height="50" transform="rotate(-90 1268 921)" fill="#513514"/>
    <rect x="1270" y="919" width="46" height="10" transform="rotate(-90 1270 919)" fill="#9B8309"/>
    <rect x="716" y="847" width="50" height="50" transform="rotate(-90 716 847)" fill="#513514"/>
    <rect x="718" y="845" width="46" height="10" transform="rotate(-90 718 845)" fill="#9B8309"/>
    <rect x="819" y="694" width="50" height="50" fill="#513514"/>
    <rect x="821" y="696" width="46" height="10" fill="#9B8309"/>
    <rect x="972" y="797" width="50" height="50" transform="rotate(90 972 797)" fill="#513514"/>
    <rect x="970" y="799" width="46" height="10" transform="rotate(90 970 799)" fill="#9B8309"/>
    <rect x="869" y="950" width="50" height="50" transform="rotate(-180 869 950)" fill="#513514"/>
    <rect x="867" y="948" width="46" height="10" transform="rotate(-180 867 948)" fill="#9B8309"/>
    <rect x="1574" y="785" width="50" height="50" fill="#513514"/>
    <rect x="1576" y="787" width="46" height="10" fill="#9B8309"/>
    <rect x="1499" y="785" width="50" height="50" fill="#513514"/>
    <rect x="1501" y="787" width="46" height="10" fill="#9B8309"/>
    <rect x="1424" y="785" width="50" height="50" fill="#513514"/>
    <rect x="1426" y="787" width="46" height="10" fill="#9B8309"/>
    <rect x="1349" y="785" width="50" height="50" fill="#513514"/>
    <rect x="1351" y="787" width="46" height="10" fill="#9B8309"/>
    <rect x="1751" y="1224" width="168" height="238" fill="#537C1E"/>
    <rect x="1751" y="1224" width="168" height="163" fill="#921E1E"/>
    <rect x="1761" y="1397" width="69" height="55" fill="#CECECE"/>
    <rect x="1840" y="1397" width="69" height="55" fill="#CECECE"/>
    <path d="M2785 890H2815V1876H2785V890Z" fill="#921E1E"/>
    <rect x="380" y="1846" width="848" height="30" fill="#921E1E"/>
    <rect x="380" y="350" width="2405" height="30" fill="#921E1E"/>
    <rect x="350" y="350" width="30" height="1526" fill="#921E1E"/>
    <rect x="2785" y="350" width="30" height="404" fill="#921E1E"/>
    <rect x="1364" y="1846" width="1421" height="30" fill="#921E1E"/>
    <rect x="528" y="624" width="24" height="108" fill="#921E1E"/>
    <rect x="528" y="798" width="24" height="85" fill="#921E1E"/>
    <rect x="528" y="949" width="24" height="245" fill="#921E1E"/>
    <rect x="528" y="1260" width="24" height="79" fill="#921E1E"/>
    <rect x="528" y="1405" width="24" height="81" fill="#921E1E"/>
    <rect x="552" y="1462" width="122" height="24" fill="#921E1E"/>
    <rect x="740" y="1462" width="77" height="24" fill="#921E1E"/>
    <rect x="883" y="1462" width="243" height="24" fill="#921E1E"/>
    <rect x="1192" y="1462" width="36" height="24" fill="#921E1E"/>
    <rect x="1364" y="1462" width="36" height="24" fill="#921E1E"/>
    <rect x="1466" y="1462" width="535" height="24" fill="#921E1E"/>
    <rect x="2001" y="1346" width="25" height="140" fill="#921E1E"/>
    <rect x="2001" y="1080" width="24" height="200" fill="#921E1E"/>
    <rect x="2001" y="741" width="24" height="273" fill="#921E1E"/>
    <rect x="2001" y="624" width="24" height="51" fill="#921E1E"/>
    <rect x="1914" y="624" width="87" height="24" fill="#921E1E"/>
    <rect x="1704" y="624" width="144" height="24" fill="#921E1E"/>
    <rect x="1524" y="624" width="114" height="24" fill="#921E1E"/>
    <rect x="1524" y="648" width="24" height="68" fill="#921E1E"/>
    <rect x="1042" y="692" width="482" height="24" fill="#921E1E"/>
    <rect x="1018" y="552" width="24" height="164" fill="#921E1E"/>
    <rect x="552" y="624" width="118" height="24" fill="#921E1E"/>
    <rect x="646" y="552" width="24" height="72" fill="#921E1E"/>
    <rect x="646" y="528" width="396" height="24" fill="#921E1E"/>
    <rect x="534" y="732" width="12" height="66" fill="#929292"/>
    <rect x="534" y="883" width="12" height="66" fill="#929292"/>
    <rect x="534" y="1194" width="12" height="66" fill="#929292"/>
    <rect x="534" y="1339" width="12" height="66" fill="#929292"/>
    <rect x="674" y="1468" width="66" height="12" fill="#929292"/>
    <rect x="817" y="1468" width="66" height="12" fill="#929292"/>
    <rect x="1126" y="1468" width="66" height="12" fill="#929292"/>
    <rect x="1400" y="1468" width="66" height="12" fill="#929292"/>
    <rect x="1848" y="630" width="66" height="12" fill="#929292"/>
    <rect x="1638" y="630" width="66" height="12" fill="#929292"/>
    <rect x="2007" y="1280" width="13" height="66" fill="#929292"/>
    <rect x="2007" y="1014" width="13" height="66" fill="#929292"/>
    <rect x="2007" y="675" width="13" height="66" fill="#929292"/>
    <rect x="1228" y="1465" width="68" height="18" fill="#592B01"/>
    <rect x="1296" y="1465" width="68" height="18" fill="#592B01"/>
    <rect x="552" y="988" width="328" height="12" fill="#3E3E3E"/>
    <rect x="980" y="988" width="72" height="12" fill="#3E3E3E"/>
    <rect x="1052" y="716" width="12" height="452" fill="#3E3E3E"/>
    <rect x="1236" y="1108" width="361" height="12" fill="#3E3E3E"/>
    <rect x="1697" y="1108" width="304" height="12" fill="#3E3E3E"/>
    <rect x="1064" y="1108" width="72" height="12" fill="#3E3E3E"/>
    <rect x="1530" y="1120" width="12" height="342" fill="#3E3E3E"/>
    <rect x="825" y="1000" width="12" height="168" fill="#3E3E3E"/>
    <rect x="773" y="1268" width="12" height="194" fill="#3E3E3E"/>
    <rect x="1052" y="1268" width="12" height="194" fill="#3E3E3E"/>
    <rect x="785" y="1268" width="77" height="12" fill="#3E3E3E"/>
    <rect x="962" y="1268" width="90" height="12" fill="#3E3E3E"/>
    <circle cx="3207" cy="652" r="50" fill="#780404"/>
    <circle cx="3060" cy="1212" r="50" fill="#780404"/>
    <circle cx="3242" cy="1772" r="50" fill="#780404"/>
    <circle cx="2733" cy="2095" r="50" fill="#780404"/>
    <circle cx="2485" cy="1574" r="50" fill="#780404"/>
    <circle cx="1974" cy="1688" r="50" fill="#780404"/>
    <circle cx="1056" cy="2085" r="50" fill="#780404"/>
    <circle cx="2870" cy="287" r="50" fill="#780404"/>
    <circle cx="2326" cy="583" r="50" fill="#780404"/>
    <circle cx="2525" cy="1035" r="50" fill="#780404"/>
    <circle cx="209" cy="1861" r="50" fill="#780404"/>
    <circle cx="764" cy="1721" r="50" fill="#780404"/>
    <circle cx="105" cy="1014" r="50" fill="#780404"/>
    <circle cx="656" cy="103" r="50" fill="#780404"/>
    <circle cx="1438" cy="267" r="50" fill="#780404"/>
    <circle cx="1739" cy="2243" r="50" fill="#780404"/>
    <circle cx="2317" cy="2411" r="50" fill="#780404"/>
    <circle cx="498" cy="2468" r="50" fill="#780404"/>
    <circle cx="3450" cy="2361" r="50" fill="#780404"/>
</svg>
