<svg width="3737" height="2595" viewBox="0 0 3737 2595" fill="none" xmlns="http://www.w3.org/2000/svg">
    <circle cx="844" cy="822" r="70" fill="#000000"/>
    <rect x="552" y="1000" width="273" height="60" fill="#000000"/>
    <rect x="612" y="1402" width="161" height="60" fill="#000000"/>
    <rect x="552" y="1060" width="60" height="402" fill="#000000"/>
    <rect x="985" y="1280" width="67" height="83" fill="#000000"/>
    <rect x="985" y="1379" width="67" height="83" fill="#000000"/>
    <rect x="1326" y="843" width="395" height="107" fill="#000000"/>
    <rect x="1939" y="1396" width="62" height="66" fill="#000000"/>
    <rect x="1664" y="1396" width="66" height="66" fill="#000000"/>
    <rect x="785" y="1317" width="66" height="145" fill="#000000"/>
    <rect x="1646" y="785" width="50" height="50" fill="#000000"/>
    <rect x="1646" y="958" width="50" height="50" fill="#000000"/>
    <rect x="1574" y="958" width="50" height="50" fill="#000000"/>
    <rect x="1499" y="958" width="50" height="50" fill="#000000"/>
    <rect x="1424" y="957" width="50" height="50" fill="#000000"/>
    <rect x="1729" y="871" width="50" height="50" fill="#000000"/>
    <rect x="1349" y="957" width="50" height="50" fill="#000000"/>
    <rect x="1268" y="871" width="50" height="50" fill="#000000"/>
    <rect x="716" y="797" width="50" height="50" fill="#000000"/>
    <rect x="819" y="694" width="50" height="50" fill="#000000"/>
    <rect x="922" y="797" width="50" height="50" fill="#000000"/>
    <rect x="819" y="900" width="50" height="50" fill="#000000"/>
    <rect x="1574" y="785" width="50" height="50" fill="#000000"/>
    <rect x="1499" y="785" width="50" height="50" fill="#000000"/>
    <rect x="1424" y="785" width="50" height="50" fill="#000000"/>
    <rect x="1349" y="785" width="50" height="50" fill="#000000"/>
    <rect x="1751" y="1224" width="168" height="238" fill="#000000"/>
    <rect width="350" height="2595" fill="#000000"/>
    <rect x="3387" width="350" height="2595" fill="#000000"/>
    <rect x="350" y="2245" width="3037" height="350" fill="#000000"/>
    <rect x="350" width="3037" height="350" fill="#000000"/>
    <rect x="534" y="732" width="12" height="66" fill="#000000"/>
    <rect x="534" y="883" width="12" height="66" fill="#000000"/>
    <rect x="534" y="1194" width="12" height="66" fill="#000000"/>
    <rect x="534" y="1339" width="12" height="66" fill="#000000"/>
    <rect x="674" y="1468" width="66" height="12" fill="#000000"/>
    <rect x="817" y="1468" width="66" height="12" fill="#000000"/>
    <rect x="1126" y="1468" width="66" height="12" fill="#000000"/>
    <rect x="1400" y="1468" width="66" height="12" fill="#000000"/>
    <rect x="1848" y="630" width="66" height="12" fill="#000000"/>
    <rect x="1638" y="630" width="66" height="12" fill="#000000"/>
    <rect x="2007" y="1280" width="13" height="66" fill="#000000"/>
    <rect x="2007" y="1014" width="13" height="66" fill="#000000"/>
    <rect x="2007" y="675" width="13" height="66" fill="#000000"/>
</svg>
