<svg width="1684" height="1138" viewBox="0 0 1684 1138" fill="none" xmlns="http://www.w3.org/2000/svg">
<rect x="60" y="244" width="24" height="108" fill="#921E1E"/>
<rect x="60" y="418" width="24" height="85" fill="#921E1E"/>
<rect x="60" y="569" width="24" height="245" fill="#921E1E"/>
<rect x="60" y="880" width="24" height="79" fill="#921E1E"/>
<rect x="60" y="1025" width="24" height="81" fill="#921E1E"/>
<rect x="84" y="1082" width="122" height="24" fill="#921E1E"/>
<rect x="272" y="1082" width="77" height="24" fill="#921E1E"/>
<rect x="415" y="1082" width="243" height="24" fill="#921E1E"/>
<rect x="724" y="1082" width="36" height="24" fill="#921E1E"/>
<rect x="896" y="1082" width="36" height="24" fill="#921E1E"/>
<rect x="998" y="1082" width="535" height="24" fill="#921E1E"/>
<rect x="1533" y="966" width="25" height="140" fill="#921E1E"/>
<rect x="1533" y="700" width="24" height="200" fill="#921E1E"/>
<rect x="1533" y="361" width="24" height="273" fill="#921E1E"/>
<rect x="1533" y="244" width="24" height="51" fill="#921E1E"/>
<rect x="1446" y="244" width="87" height="24" fill="#921E1E"/>
<rect x="1236" y="244" width="144" height="24" fill="#921E1E"/>
<rect x="1056" y="244" width="114" height="24" fill="#921E1E"/>
<rect x="1056" y="268" width="24" height="68" fill="#921E1E"/>
<rect x="978" y="312" width="78" height="24" fill="#921E1E"/>
<rect x="574" y="312" width="268" height="24" fill="#921E1E"/>
<rect x="550" y="172" width="24" height="164" fill="#921E1E"/>
<rect x="458" y="148" width="116" height="24" fill="#921E1E"/>
<rect x="84" y="244" width="118" height="24" fill="#921E1E"/>
<rect x="178" y="172" width="24" height="72" fill="#921E1E"/>
<rect x="178" y="148" width="116" height="24" fill="#921E1E"/>
</svg>
