<svg width="3737" height="2595" viewBox="0 0 3737 2595" fill="none" xmlns="http://www.w3.org/2000/svg">
    <path fill-rule="evenodd" clip-rule="evenodd" d="M0 0V2595H3737V0H0Z" fill="#626262"/>
    <path d="M2785 350H2815V1876H2785V350Z" fill="black"/>
    <rect x="380" y="1846" width="848" height="30" fill="black"/>
    <rect x="380" y="350" width="2405" height="30" fill="black"/>
    <rect x="350" y="350" width="30" height="1526" fill="black"/>
    <rect x="1364" y="1846" width="1421" height="30" fill="black"/>
    <rect x="528" y="624" width="24" height="862" fill="black"/>
    <rect x="552" y="1462" width="1449" height="24" fill="black"/>
    <rect x="2001" y="624" width="25" height="862" fill="black"/>
    <rect x="1524" y="624" width="477" height="24" fill="black"/>
    <rect x="1524" y="648" width="24" height="68" fill="black"/>
    <rect x="1042" y="692" width="482" height="24" fill="black"/>
    <rect x="1018" y="552" width="24" height="164" fill="black"/>
    <rect x="552" y="624" width="118" height="24" fill="black"/>
    <rect x="646" y="552" width="24" height="72" fill="black"/>
    <rect x="646" y="528" width="396" height="24" fill="black"/>
    <rect x="552" y="988" width="328" height="12" fill="black"/>
    <rect x="980" y="988" width="72" height="12" fill="black"/>
    <rect x="1052" y="716" width="12" height="452" fill="black"/>
    <rect x="1236" y="1108" width="361" height="12" fill="black"/>
    <rect x="1697" y="1108" width="304" height="12" fill="black"/>
    <rect x="1064" y="1108" width="72" height="12" fill="black"/>
    <rect x="1530" y="1120" width="12" height="342" fill="black"/>
    <rect x="825" y="1000" width="12" height="168" fill="black"/>
    <rect x="773" y="1268" width="12" height="194" fill="black"/>
    <rect x="1052" y="1268" width="12" height="194" fill="black"/>
    <rect x="785" y="1268" width="77" height="12" fill="black"/>
    <rect x="962" y="1268" width="90" height="12" fill="black"/>
    <circle cx="2733" cy="2095" r="50" fill="black"/>
    <circle cx="2485" cy="1574" r="50" fill="black"/>
    <circle cx="1056" cy="2085" r="50" fill="black"/>
    <circle cx="1974" cy="1688" r="50" fill="black"/>
    <circle cx="3242" cy="1772" r="50" fill="black"/>
    <circle cx="3060" cy="1212" r="50" fill="black"/>
    <circle cx="3207" cy="652" r="50" fill="black"/>
    <circle cx="2870" cy="287" r="50" fill="black"/>
    <circle cx="2326" cy="583" r="50" fill="black"/>
    <circle cx="2525" cy="1035" r="50" fill="black"/>
    <circle cx="209" cy="1861" r="50" fill="black"/>
    <circle cx="764" cy="1721" r="50" fill="black"/>
    <circle cx="498" cy="2468" r="50" fill="black"/>
    <circle cx="2317" cy="2411" r="50" fill="black"/>
    <circle cx="1739" cy="2243" r="50" fill="black"/>
    <circle cx="1438" cy="267" r="50" fill="black"/>
    <circle cx="656" cy="103" r="50" fill="black"/>
    <circle cx="105" cy="1014" r="50" fill="black"/>
    <circle cx="3450" cy="2361" r="50" fill="black"/>
    <rect x="1228" y="1474" width="17" height="1121" fill="black"/>
    <rect x="1347" y="1474" width="17" height="1121" fill="black"/>
    <path d="M676.602 806.469L671.117 812.375V827H660.57V775.812H671.117V799.016L675.758 792.652L688.801 775.812H701.773L683.598 798.559L702.301 827H689.75L676.602 806.469ZM717.488 827H706.941V775.812H717.488V827ZM764.773 784.355H749.094V827H738.547V784.355H723.078V775.812H764.773V784.355ZM810.02 809.949C809.621 815.457 807.582 819.793 803.902 822.957C800.246 826.121 795.418 827.703 789.418 827.703C782.855 827.703 777.688 825.5 773.914 821.094C770.164 816.664 768.289 810.594 768.289 802.883V799.754C768.289 794.832 769.156 790.496 770.891 786.746C772.625 782.996 775.098 780.125 778.309 778.133C781.543 776.117 785.293 775.109 789.559 775.109C795.465 775.109 800.223 776.691 803.832 779.855C807.441 783.02 809.527 787.461 810.09 793.18H799.543C799.285 789.875 798.359 787.484 796.766 786.008C795.195 784.508 792.793 783.758 789.559 783.758C786.043 783.758 783.406 785.023 781.648 787.555C779.914 790.062 779.023 793.965 778.977 799.262V803.129C778.977 808.66 779.809 812.703 781.473 815.258C783.16 817.812 785.809 819.09 789.418 819.09C792.676 819.09 795.102 818.352 796.695 816.875C798.312 815.375 799.238 813.066 799.473 809.949H810.02ZM858.605 827H848.059V805.062H827.492V827H816.945V775.812H827.492V796.555H848.059V775.812H858.605V827ZM898.648 804.816H878.398V818.527H902.164V827H867.852V775.812H902.094V784.355H878.398V796.555H898.648V804.816ZM949.977 827H939.43L918.898 793.32V827H908.352V775.812H918.898L939.465 809.562V775.812H949.977V827Z"
          fill="white"/>
    <path d="M1609.57 1311V1259.81H1627.5C1633.71 1259.81 1638.42 1261.01 1641.63 1263.4C1644.84 1265.77 1646.45 1269.25 1646.45 1273.84C1646.45 1276.35 1645.8 1278.56 1644.52 1280.48C1643.23 1282.38 1641.43 1283.78 1639.14 1284.67C1641.76 1285.32 1643.82 1286.65 1645.32 1288.64C1646.85 1290.63 1647.61 1293.07 1647.61 1295.95C1647.61 1300.88 1646.04 1304.6 1642.9 1307.13C1639.76 1309.66 1635.28 1310.95 1629.47 1311H1609.57ZM1620.12 1288.71V1302.53H1629.15C1631.64 1302.53 1633.57 1301.94 1634.95 1300.77C1636.36 1299.57 1637.06 1297.93 1637.06 1295.85C1637.06 1291.16 1634.64 1288.78 1629.79 1288.71H1620.12ZM1620.12 1281.26H1627.92C1633.24 1281.16 1635.9 1279.04 1635.9 1274.89C1635.9 1272.57 1635.22 1270.91 1633.86 1269.9C1632.53 1268.87 1630.41 1268.36 1627.5 1268.36H1620.12V1281.26ZM1686.35 1288.82H1666.1V1302.53H1689.87V1311H1655.55V1259.81H1689.8V1268.36H1666.1V1280.55H1686.35V1288.82ZM1696.05 1311V1259.81H1711.8C1716.3 1259.81 1720.32 1260.83 1723.86 1262.87C1727.43 1264.89 1730.2 1267.77 1732.2 1271.52C1734.19 1275.25 1735.18 1279.49 1735.18 1284.25V1286.6C1735.18 1291.36 1734.2 1295.59 1732.23 1299.29C1730.29 1303 1727.53 1305.87 1723.97 1307.91C1720.41 1309.95 1716.39 1310.98 1711.91 1311H1696.05ZM1706.6 1268.36V1302.53H1711.7C1715.82 1302.53 1718.98 1301.18 1721.16 1298.48C1723.34 1295.79 1724.45 1291.93 1724.5 1286.92V1284.21C1724.5 1279.01 1723.42 1275.07 1721.26 1272.4C1719.11 1269.7 1715.95 1268.36 1711.8 1268.36H1706.6ZM1761.83 1292.26H1753.43V1311H1742.88V1259.81H1761.9C1767.95 1259.81 1772.61 1261.16 1775.89 1263.86C1779.18 1266.55 1780.82 1270.36 1780.82 1275.28C1780.82 1278.77 1780.05 1281.69 1778.53 1284.04C1777.03 1286.36 1774.75 1288.21 1771.68 1289.59L1782.75 1310.51V1311H1771.43L1761.83 1292.26ZM1753.43 1283.72H1761.94C1764.59 1283.72 1766.64 1283.05 1768.09 1281.71C1769.54 1280.36 1770.27 1278.49 1770.27 1276.12C1770.27 1273.71 1769.58 1271.81 1768.2 1270.43C1766.84 1269.05 1764.74 1268.36 1761.9 1268.36H1753.43V1283.72ZM1830.91 1286.57C1830.91 1291.61 1830.02 1296.02 1828.24 1299.82C1826.46 1303.62 1823.91 1306.55 1820.58 1308.61C1817.27 1310.67 1813.48 1311.7 1809.19 1311.7C1804.95 1311.7 1801.16 1310.68 1797.83 1308.64C1794.5 1306.61 1791.93 1303.7 1790.1 1299.93C1788.27 1296.13 1787.34 1291.77 1787.32 1286.85V1284.32C1787.32 1279.28 1788.22 1274.85 1790.03 1271.03C1791.86 1267.18 1794.42 1264.24 1797.73 1262.2C1801.05 1260.14 1804.85 1259.11 1809.12 1259.11C1813.38 1259.11 1817.17 1260.14 1820.47 1262.2C1823.8 1264.24 1826.37 1267.18 1828.17 1271.03C1830 1274.85 1830.91 1279.27 1830.91 1284.28V1286.57ZM1820.23 1284.25C1820.23 1278.88 1819.27 1274.8 1817.34 1272.01C1815.42 1269.22 1812.68 1267.83 1809.12 1267.83C1805.58 1267.83 1802.85 1269.21 1800.93 1271.98C1799 1274.72 1798.03 1278.75 1798.01 1284.07V1286.57C1798.01 1291.79 1798.97 1295.85 1800.89 1298.73C1802.81 1301.61 1805.58 1303.05 1809.19 1303.05C1812.73 1303.05 1815.45 1301.67 1817.34 1298.91C1819.24 1296.12 1820.2 1292.06 1820.23 1286.74V1284.25ZM1880.62 1286.57C1880.62 1291.61 1879.73 1296.02 1877.95 1299.82C1876.17 1303.62 1873.62 1306.55 1870.29 1308.61C1866.98 1310.67 1863.19 1311.7 1858.9 1311.7C1854.66 1311.7 1850.87 1310.68 1847.54 1308.64C1844.21 1306.61 1841.64 1303.7 1839.81 1299.93C1837.98 1296.13 1837.05 1291.77 1837.03 1286.85V1284.32C1837.03 1279.28 1837.93 1274.85 1839.74 1271.03C1841.57 1267.18 1844.13 1264.24 1847.44 1262.2C1850.77 1260.14 1854.56 1259.11 1858.83 1259.11C1863.09 1259.11 1866.88 1260.14 1870.18 1262.2C1873.51 1264.24 1876.08 1267.18 1877.88 1271.03C1879.71 1274.85 1880.62 1279.27 1880.62 1284.28V1286.57ZM1869.94 1284.25C1869.94 1278.88 1868.98 1274.8 1867.05 1272.01C1865.13 1269.22 1862.39 1267.83 1858.83 1267.83C1855.29 1267.83 1852.56 1269.21 1850.64 1271.98C1848.71 1274.72 1847.74 1278.75 1847.72 1284.07V1286.57C1847.72 1291.79 1848.68 1295.85 1850.6 1298.73C1852.52 1301.61 1855.29 1303.05 1858.9 1303.05C1862.44 1303.05 1865.16 1301.67 1867.05 1298.91C1868.95 1296.12 1869.91 1292.06 1869.94 1286.74V1284.25ZM1902.07 1259.81L1915.22 1296.94L1928.3 1259.81H1942.15V1311H1931.57V1297.01L1932.62 1272.86L1918.8 1311H1911.56L1897.78 1272.89L1898.84 1297.01V1311H1888.29V1259.81H1902.07Z"
          fill="white"/>
    <path d="M1260.75 2294.53L1310.25 2277L1260.75 2259.56L1260.75 2241.09L1329 2241.09L1329 2255.2L1310.34 2255.2L1278.14 2253.8L1329 2272.22L1329 2281.87L1278.19 2300.25L1310.34 2298.84L1329 2298.84L1329 2312.91L1260.75 2312.91L1260.75 2294.53ZM1314.94 2189.44L1314.94 2214.09L1329 2218.78L1329 2233.73L1260.75 2208.33L1260.75 2195.3L1329 2169.75L1329 2184.7L1314.94 2189.44ZM1303.55 2210.3L1303.55 2193.23L1278 2201.81L1303.55 2210.3ZM1329 2148.42L1329 2162.48L1260.75 2162.48L1260.75 2148.42L1329 2148.42ZM1329 2079.84L1329 2093.91L1284.09 2121.28L1329 2121.28L1329 2135.34L1260.75 2135.34L1260.75 2121.28L1305.75 2093.86L1260.75 2093.86L1260.75 2079.84L1329 2079.84ZM1304.02 2018.39L1304.02 2029.59L1329 2029.59L1329 2043.66L1260.75 2043.66L1260.75 2018.3C1260.75 2010.23 1262.55 2004.02 1266.14 1999.64C1269.73 1995.27 1274.81 1993.08 1281.37 1993.08C1286.03 1993.08 1289.92 1994.09 1293.05 1996.12C1296.14 1998.12 1298.61 2001.17 1300.45 2005.27L1328.34 1990.5L1329 1990.5L1329 2005.59L1304.02 2018.39ZM1292.62 2029.59L1292.62 2018.25C1292.62 2014.72 1291.73 2011.98 1289.95 2010.05C1288.14 2008.11 1285.66 2007.14 1282.5 2007.14C1279.28 2007.14 1276.75 2008.06 1274.91 2009.91C1273.06 2011.72 1272.14 2014.52 1272.14 2018.3L1272.14 2029.59L1292.62 2029.59ZM1296.42 1926.28C1303.14 1926.28 1309.03 1927.47 1314.09 1929.84C1319.16 1932.22 1323.06 1935.62 1325.81 1940.06C1328.56 1944.47 1329.94 1949.53 1329.94 1955.25C1329.94 1960.91 1328.58 1965.95 1325.86 1970.39C1323.14 1974.83 1319.27 1978.27 1314.23 1980.7C1309.17 1983.14 1303.36 1984.37 1296.8 1984.41L1293.42 1984.41C1286.7 1984.41 1280.8 1983.2 1275.7 1980.8C1270.58 1978.36 1266.66 1974.94 1263.94 1970.53C1261.19 1966.09 1259.81 1961.03 1259.81 1955.34C1259.81 1949.66 1261.19 1944.61 1263.94 1940.2C1266.66 1935.77 1270.58 1932.34 1275.7 1929.94C1280.8 1927.5 1286.69 1926.28 1293.37 1926.28L1296.42 1926.28ZM1293.33 1940.53C1286.17 1940.53 1280.73 1941.81 1277.02 1944.37C1273.3 1946.94 1271.44 1950.59 1271.44 1955.34C1271.44 1960.06 1273.28 1963.7 1276.97 1966.27C1280.62 1968.83 1286 1970.12 1293.09 1970.16L1296.42 1970.16C1303.39 1970.16 1308.8 1968.87 1312.64 1966.31C1316.48 1963.75 1318.41 1960.06 1318.41 1955.25C1318.41 1950.53 1316.56 1946.91 1312.87 1944.37C1309.16 1941.84 1303.75 1940.56 1296.66 1940.53L1293.33 1940.53ZM1314.94 1878.56L1314.94 1903.22L1329 1907.91L1329 1922.86L1260.75 1897.45L1260.75 1884.42L1329 1858.87L1329 1873.83L1314.94 1878.56ZM1303.55 1899.42L1303.55 1882.36L1278 1890.94L1303.55 1899.42ZM1329 1852.5L1260.75 1852.5L1260.75 1831.5C1260.75 1825.5 1262.11 1820.14 1264.83 1815.42C1267.52 1810.67 1271.36 1806.97 1276.36 1804.31C1281.33 1801.66 1286.98 1800.33 1293.33 1800.33L1296.47 1800.33C1302.81 1800.33 1308.45 1801.64 1313.39 1804.27C1318.33 1806.86 1322.16 1810.53 1324.87 1815.28C1327.59 1820.03 1328.97 1825.39 1329 1831.36L1329 1852.5ZM1272.14 1838.44L1317.7 1838.44L1317.7 1831.64C1317.7 1826.14 1315.91 1821.94 1312.31 1819.03C1308.72 1816.12 1303.58 1814.64 1296.89 1814.58L1293.28 1814.58C1286.34 1814.58 1281.09 1816.02 1277.53 1818.89C1273.94 1821.77 1272.14 1825.97 1272.14 1831.5L1272.14 1838.44Z"
          fill="white"/>
    <path d="M2263.62 1448.5L2277.83 1417.75H2293.2L2270.8 1461.25V1486H2256.5V1461.25L2234.09 1417.75H2249.52L2263.62 1448.5ZM2330.94 1471.94H2306.28L2301.59 1486H2286.64L2312.05 1417.75H2325.08L2350.62 1486H2335.67L2330.94 1471.94ZM2310.08 1460.55H2327.14L2318.56 1435L2310.08 1460.55ZM2382.27 1461.02H2371.06V1486H2357V1417.75H2382.36C2390.42 1417.75 2396.64 1419.55 2401.02 1423.14C2405.39 1426.73 2407.58 1431.81 2407.58 1438.38C2407.58 1443.03 2406.56 1446.92 2404.53 1450.05C2402.53 1453.14 2399.48 1455.61 2395.39 1457.45L2410.16 1485.34V1486H2395.06L2382.27 1461.02ZM2371.06 1449.62H2382.41C2385.94 1449.62 2388.67 1448.73 2390.61 1446.95C2392.55 1445.14 2393.52 1442.66 2393.52 1439.5C2393.52 1436.28 2392.59 1433.75 2390.75 1431.91C2388.94 1430.06 2386.14 1429.14 2382.36 1429.14H2371.06V1449.62ZM2418.31 1486V1417.75H2439.31C2445.31 1417.75 2450.67 1419.11 2455.39 1421.83C2460.14 1424.52 2463.84 1428.36 2466.5 1433.36C2469.16 1438.33 2470.48 1443.98 2470.48 1450.33V1453.47C2470.48 1459.81 2469.17 1465.45 2466.55 1470.39C2463.95 1475.33 2460.28 1479.16 2455.53 1481.88C2450.78 1484.59 2445.42 1485.97 2439.45 1486H2418.31ZM2432.38 1429.14V1474.7H2439.17C2444.67 1474.7 2448.88 1472.91 2451.78 1469.31C2454.69 1465.72 2456.17 1460.58 2456.23 1453.89V1450.28C2456.23 1443.34 2454.8 1438.09 2451.92 1434.53C2449.05 1430.94 2444.84 1429.14 2439.31 1429.14H2432.38Z"
          fill="white"/>
    <path d="M2969.48 2343.09C2969.48 2340.44 2968.55 2338.41 2966.67 2337C2964.8 2335.56 2961.42 2334.06 2956.55 2332.5C2951.67 2330.91 2947.81 2329.34 2944.97 2327.81C2937.22 2323.62 2933.34 2317.98 2933.34 2310.89C2933.34 2307.2 2934.38 2303.92 2936.44 2301.05C2938.53 2298.14 2941.52 2295.88 2945.39 2294.25C2949.3 2292.62 2953.67 2291.81 2958.52 2291.81C2963.39 2291.81 2967.73 2292.7 2971.55 2294.48C2975.36 2296.23 2978.31 2298.72 2980.41 2301.94C2982.53 2305.16 2983.59 2308.81 2983.59 2312.91H2969.53C2969.53 2309.78 2968.55 2307.36 2966.58 2305.64C2964.61 2303.89 2961.84 2303.02 2958.28 2303.02C2954.84 2303.02 2952.17 2303.75 2950.27 2305.22C2948.36 2306.66 2947.41 2308.56 2947.41 2310.94C2947.41 2313.16 2948.52 2315.02 2950.73 2316.52C2952.98 2318.02 2956.28 2319.42 2960.62 2320.73C2968.62 2323.14 2974.45 2326.12 2978.11 2329.69C2981.77 2333.25 2983.59 2337.69 2983.59 2343C2983.59 2348.91 2981.36 2353.55 2976.89 2356.92C2972.42 2360.27 2966.41 2361.94 2958.84 2361.94C2953.59 2361.94 2948.81 2360.98 2944.5 2359.08C2940.19 2357.14 2936.89 2354.5 2934.61 2351.16C2932.36 2347.81 2931.23 2343.94 2931.23 2339.53H2945.34C2945.34 2347.06 2949.84 2350.83 2958.84 2350.83C2962.19 2350.83 2964.8 2350.16 2966.67 2348.81C2968.55 2347.44 2969.48 2345.53 2969.48 2343.09ZM3007.22 2336.95V2361H2993.16V2292.75H3019.78C3024.91 2292.75 3029.41 2293.69 3033.28 2295.56C3037.19 2297.44 3040.19 2300.11 3042.28 2303.58C3044.38 2307.02 3045.42 2310.94 3045.42 2315.34C3045.42 2322.03 3043.12 2327.31 3038.53 2331.19C3033.97 2335.03 3027.64 2336.95 3019.55 2336.95H3007.22ZM3007.22 2325.56H3019.78C3023.5 2325.56 3026.33 2324.69 3028.27 2322.94C3030.23 2321.19 3031.22 2318.69 3031.22 2315.44C3031.22 2312.09 3030.23 2309.39 3028.27 2307.33C3026.3 2305.27 3023.58 2304.2 3020.11 2304.14H3007.22V2325.56ZM3085.31 2346.94H3060.66L3055.97 2361H3041.02L3066.42 2292.75H3079.45L3105 2361H3090.05L3085.31 2346.94ZM3064.45 2335.55H3081.52L3072.94 2310L3064.45 2335.55ZM3162.66 2341.31L3171.84 2292.75H3185.86L3170.72 2361H3156.56L3145.45 2315.34L3134.34 2361H3120.19L3105.05 2292.75H3119.06L3128.3 2341.22L3139.55 2292.75H3151.45L3162.66 2341.31ZM3249 2361H3234.94L3207.56 2316.09V2361H3193.5V2292.75H3207.56L3234.98 2337.75V2292.75H3249V2361Z"
          fill="white"/>
    <path d="M1172.23 1316H1161.68V1294.06H1141.12V1316H1130.57V1264.81H1141.12V1285.55H1161.68V1264.81H1172.23V1316ZM1211.01 1305.45H1192.52L1189 1316H1177.79L1196.84 1264.81H1206.61L1225.77 1316H1214.56L1211.01 1305.45ZM1195.36 1296.91H1208.16L1201.73 1277.75L1195.36 1296.91ZM1241.1 1307.53H1263.5V1316H1230.55V1264.81H1241.1V1307.53ZM1280.12 1307.53H1302.52V1316H1269.58V1264.81H1280.12V1307.53ZM1345.16 1301.23L1352.05 1264.81H1362.57L1351.21 1316H1340.59L1332.26 1281.76L1323.93 1316H1313.31L1301.96 1264.81H1312.47L1319.39 1301.16L1327.83 1264.81H1336.76L1345.16 1301.23ZM1395.65 1305.45H1377.16L1373.64 1316H1362.43L1381.48 1264.81H1391.25L1410.41 1316H1399.2L1395.65 1305.45ZM1380 1296.91H1392.8L1386.37 1277.75L1380 1296.91ZM1427.57 1287.88L1438.22 1264.81H1449.75L1432.95 1297.44V1316H1422.23V1297.44L1405.42 1264.81H1416.99L1427.57 1287.88Z"
          fill="white"/>
    <path d="M854.047 1385V1350.88H866C870.141 1350.88 873.281 1351.67 875.422 1353.27C877.562 1354.84 878.633 1357.16 878.633 1360.23C878.633 1361.9 878.203 1363.38 877.344 1364.66C876.484 1365.92 875.289 1366.85 873.758 1367.45C875.508 1367.88 876.883 1368.77 877.883 1370.09C878.898 1371.42 879.406 1373.05 879.406 1374.97C879.406 1378.25 878.359 1380.73 876.266 1382.42C874.172 1384.11 871.188 1384.97 867.312 1385H854.047ZM861.078 1370.14V1379.35H867.102C868.758 1379.35 870.047 1378.96 870.969 1378.18C871.906 1377.38 872.375 1376.29 872.375 1374.9C872.375 1371.77 870.758 1370.19 867.523 1370.14H861.078ZM861.078 1365.17H866.281C869.828 1365.11 871.602 1363.7 871.602 1360.93C871.602 1359.38 871.148 1358.27 870.242 1357.6C869.352 1356.91 867.938 1356.57 866 1356.57H861.078V1365.17ZM903.969 1377.97H891.641L889.297 1385H881.82L894.523 1350.88H901.039L913.812 1385H906.336L903.969 1377.97ZM893.539 1372.27H902.07L897.781 1359.5L893.539 1372.27ZM939.875 1356.57H929.422V1385H922.391V1356.57H912.078V1350.88H939.875V1356.57ZM971.68 1385H964.648V1370.38H950.938V1385H943.906V1350.88H950.938V1364.7H964.648V1350.88H971.68V1385Z"
          fill="white"/>
    <path d="M623.625 1229.16L628.219 1204.88H635.227L627.656 1239H620.578L615.023 1216.17L609.469 1239H602.391L594.82 1204.88H601.828L606.445 1229.11L612.07 1204.88H618.023L623.625 1229.16ZM657.281 1231.97H644.953L642.609 1239H635.133L647.836 1204.88H654.352L667.125 1239H659.648L657.281 1231.97ZM646.852 1226.27H655.383L651.094 1213.5L646.852 1226.27ZM682.945 1226.51H677.344V1239H670.312V1204.88H682.992C687.023 1204.88 690.133 1205.77 692.32 1207.57C694.508 1209.37 695.602 1211.91 695.602 1215.19C695.602 1217.52 695.094 1219.46 694.078 1221.02C693.078 1222.57 691.555 1223.8 689.508 1224.73L696.891 1238.67V1239H689.344L682.945 1226.51ZM677.344 1220.81H683.016C684.781 1220.81 686.148 1220.37 687.117 1219.48C688.086 1218.57 688.57 1217.33 688.57 1215.75C688.57 1214.14 688.109 1212.88 687.188 1211.95C686.281 1211.03 684.883 1210.57 682.992 1210.57H677.344V1220.81ZM700.969 1239V1204.88H711.469C714.469 1204.88 717.148 1205.55 719.508 1206.91C721.883 1208.26 723.734 1210.18 725.062 1212.68C726.391 1215.16 727.055 1217.99 727.055 1221.16V1222.73C727.055 1225.91 726.398 1228.73 725.086 1231.2C723.789 1233.66 721.953 1235.58 719.578 1236.94C717.203 1238.3 714.523 1238.98 711.539 1239H700.969ZM708 1210.57V1233.35H711.398C714.148 1233.35 716.25 1232.45 717.703 1230.66C719.156 1228.86 719.898 1226.29 719.93 1222.95V1221.14C719.93 1217.67 719.211 1215.05 717.773 1213.27C716.336 1211.47 714.234 1210.57 711.469 1210.57H708ZM744.82 1226.51H739.219V1239H732.188V1204.88H744.867C748.898 1204.88 752.008 1205.77 754.195 1207.57C756.383 1209.37 757.477 1211.91 757.477 1215.19C757.477 1217.52 756.969 1219.46 755.953 1221.02C754.953 1222.57 753.43 1223.8 751.383 1224.73L758.766 1238.67V1239H751.219L744.82 1226.51ZM739.219 1220.81H744.891C746.656 1220.81 748.023 1220.37 748.992 1219.48C749.961 1218.57 750.445 1217.33 750.445 1215.75C750.445 1214.14 749.984 1212.88 749.062 1211.95C748.156 1211.03 746.758 1210.57 744.867 1210.57H739.219V1220.81ZM790.875 1222.71C790.875 1226.07 790.281 1229.02 789.094 1231.55C787.906 1234.08 786.203 1236.03 783.984 1237.41C781.781 1238.78 779.25 1239.47 776.391 1239.47C773.562 1239.47 771.039 1238.79 768.82 1237.43C766.602 1236.07 764.883 1234.13 763.664 1231.62C762.445 1229.09 761.828 1226.18 761.812 1222.9V1221.21C761.812 1217.85 762.414 1214.9 763.617 1212.35C764.836 1209.79 766.547 1207.83 768.75 1206.47C770.969 1205.09 773.5 1204.41 776.344 1204.41C779.188 1204.41 781.711 1205.09 783.914 1206.47C786.133 1207.83 787.844 1209.79 789.047 1212.35C790.266 1214.9 790.875 1217.84 790.875 1221.19V1222.71ZM783.75 1221.16C783.75 1217.59 783.109 1214.87 781.828 1213.01C780.547 1211.15 778.719 1210.22 776.344 1210.22C773.984 1210.22 772.164 1211.14 770.883 1212.98C769.602 1214.81 768.953 1217.5 768.938 1221.05V1222.71C768.938 1226.2 769.578 1228.9 770.859 1230.82C772.141 1232.74 773.984 1233.7 776.391 1233.7C778.75 1233.7 780.562 1232.78 781.828 1230.94C783.094 1229.08 783.734 1226.38 783.75 1222.83V1221.16ZM795.984 1239V1204.88H807.938C812.078 1204.88 815.219 1205.67 817.359 1207.27C819.5 1208.84 820.57 1211.16 820.57 1214.23C820.57 1215.9 820.141 1217.38 819.281 1218.66C818.422 1219.92 817.227 1220.85 815.695 1221.45C817.445 1221.88 818.82 1222.77 819.82 1224.09C820.836 1225.42 821.344 1227.05 821.344 1228.97C821.344 1232.25 820.297 1234.73 818.203 1236.42C816.109 1238.11 813.125 1238.97 809.25 1239H795.984ZM803.016 1224.14V1233.35H809.039C810.695 1233.35 811.984 1232.96 812.906 1232.18C813.844 1231.38 814.312 1230.29 814.312 1228.9C814.312 1225.77 812.695 1224.19 809.461 1224.14H803.016ZM803.016 1219.17H808.219C811.766 1219.11 813.539 1217.7 813.539 1214.93C813.539 1213.38 813.086 1212.27 812.18 1211.6C811.289 1210.91 809.875 1210.57 807.938 1210.57H803.016V1219.17ZM847.172 1224.21H833.672V1233.35H849.516V1239H826.641V1204.88H849.469V1210.57H833.672V1218.7H847.172V1224.21Z"
          fill="white"/>
    <path d="M1322.57 916V864.812H1338.32C1342.82 864.812 1346.84 865.832 1350.38 867.871C1353.94 869.887 1356.72 872.77 1358.71 876.52C1360.7 880.246 1361.7 884.488 1361.7 889.246V891.602C1361.7 896.359 1360.71 900.59 1358.75 904.293C1356.8 907.996 1354.05 910.867 1350.48 912.906C1346.92 914.945 1342.9 915.977 1338.43 916H1322.57ZM1333.12 873.355V907.527H1338.21C1342.34 907.527 1345.49 906.18 1347.67 903.484C1349.85 900.789 1350.96 896.934 1351.01 891.918V889.211C1351.01 884.008 1349.93 880.07 1347.78 877.398C1345.62 874.703 1342.47 873.355 1338.32 873.355H1333.12ZM1380.61 916H1370.07V864.812H1380.61V916ZM1432.05 916H1421.5L1400.97 882.32V916H1390.42V864.812H1400.97L1421.54 898.562V864.812H1432.05V916ZM1452.47 916H1441.93V864.812H1452.47V916ZM1503.91 916H1493.36L1472.83 882.32V916H1462.28V864.812H1472.83L1493.39 898.562V864.812H1503.91V916ZM1553.62 909.531C1551.72 911.805 1549.04 913.574 1545.57 914.84C1542.1 916.082 1538.25 916.703 1534.04 916.703C1529.61 916.703 1525.71 915.742 1522.36 913.82C1519.04 911.875 1516.46 909.062 1514.63 905.383C1512.82 901.703 1511.9 897.379 1511.85 892.41V888.93C1511.85 883.82 1512.71 879.402 1514.42 875.676C1516.15 871.926 1518.64 869.066 1521.87 867.098C1525.13 865.105 1528.94 864.109 1533.3 864.109C1539.37 864.109 1544.11 865.562 1547.54 868.469C1550.96 871.352 1552.98 875.559 1553.62 881.09H1543.35C1542.88 878.16 1541.84 876.016 1540.22 874.656C1538.63 873.297 1536.43 872.617 1533.61 872.617C1530.03 872.617 1527.3 873.965 1525.42 876.66C1523.55 879.355 1522.6 883.363 1522.57 888.684V891.953C1522.57 897.32 1523.59 901.375 1525.63 904.117C1527.67 906.859 1530.66 908.23 1534.6 908.23C1538.56 908.23 1541.38 907.387 1543.07 905.699V896.875H1533.47V889.105H1553.62V909.531ZM1621.79 916H1611.24V894.062H1590.67V916H1580.12V864.812H1590.67V885.555H1611.24V864.812H1621.79V916ZM1660.56 905.453H1642.07L1638.55 916H1627.34L1646.39 864.812H1656.17L1675.33 916H1664.11L1660.56 905.453ZM1644.92 896.91H1657.71L1651.28 877.75L1644.92 896.91ZM1690.66 907.527H1713.05V916H1680.11V864.812H1690.66V907.527ZM1729.68 907.527H1752.07V916H1719.13V864.812H1729.68V907.527Z"
          fill="white"/>
</svg>
