<svg width="3737" height="2595" viewBox="0 0 3737 2595" fill="none" xmlns="http://www.w3.org/2000/svg">
    <g clip-path="url(#clip0)">
        <path d="M3196.65 496.774C3203.43 494.957 3210.57 494.957 3217.35 496.774L3275.65 512.394C3282.43 514.211 3288.61 517.782 3293.58 522.747L3336.25 565.421C3341.22 570.386 3344.79 576.571 3346.61 583.353L3362.23 641.647C3364.04 648.429 3364.04 655.571 3362.23 662.353L3346.61 720.647C3344.79 727.429 3341.22 733.614 3336.25 738.579L3293.58 781.253C3288.61 786.218 3282.43 789.789 3275.65 791.606L3217.35 807.226C3210.57 809.043 3203.43 809.043 3196.65 807.226L3138.35 791.606C3131.57 789.789 3125.39 786.218 3120.42 781.253L3077.75 738.579C3072.78 733.614 3069.21 727.429 3067.39 720.647L3051.77 662.353C3049.96 655.571 3049.96 648.429 3051.77 641.647L3067.39 583.353C3069.21 576.571 3072.78 570.386 3077.75 565.421L3120.42 522.747C3125.39 517.782 3131.57 514.211 3138.35 512.394L3196.65 496.774Z"
              fill="#496809" fill-opacity="0.8"/>
        <path d="M3049.65 1056.77C3056.43 1054.96 3063.57 1054.96 3070.35 1056.77L3128.65 1072.39C3135.43 1074.21 3141.61 1077.78 3146.58 1082.75L3189.25 1125.42C3194.22 1130.39 3197.79 1136.57 3199.61 1143.35L3215.23 1201.65C3217.04 1208.43 3217.04 1215.57 3215.23 1222.35L3199.61 1280.65C3197.79 1287.43 3194.22 1293.61 3189.25 1298.58L3146.58 1341.25C3141.61 1346.22 3135.43 1349.79 3128.65 1351.61L3070.35 1367.23C3063.57 1369.04 3056.43 1369.04 3049.65 1367.23L2991.35 1351.61C2984.57 1349.79 2978.39 1346.22 2973.42 1341.25L2930.75 1298.58C2925.78 1293.61 2922.21 1287.43 2920.39 1280.65L2904.77 1222.35C2902.96 1215.57 2902.96 1208.43 2904.77 1201.65L2920.39 1143.35C2922.21 1136.57 2925.78 1130.39 2930.75 1125.42L2973.42 1082.75C2978.39 1077.78 2984.57 1074.21 2991.35 1072.39L3049.65 1056.77Z"
              fill="#496809" fill-opacity="0.8"/>
        <path d="M3231.65 1616.77C3238.43 1614.96 3245.57 1614.96 3252.35 1616.77L3310.65 1632.39C3317.43 1634.21 3323.61 1637.78 3328.58 1642.75L3371.25 1685.42C3376.22 1690.39 3379.79 1696.57 3381.61 1703.35L3397.23 1761.65C3399.04 1768.43 3399.04 1775.57 3397.23 1782.35L3381.61 1840.65C3379.79 1847.43 3376.22 1853.61 3371.25 1858.58L3328.58 1901.25C3323.61 1906.22 3317.43 1909.79 3310.65 1911.61L3252.35 1927.23C3245.57 1929.04 3238.43 1929.04 3231.65 1927.23L3173.35 1911.61C3166.57 1909.79 3160.39 1906.22 3155.42 1901.25L3112.75 1858.58C3107.78 1853.61 3104.21 1847.43 3102.39 1840.65L3086.77 1782.35C3084.96 1775.57 3084.96 1768.43 3086.77 1761.65L3102.39 1703.35C3104.21 1696.57 3107.78 1690.39 3112.75 1685.42L3155.42 1642.75C3160.39 1637.78 3166.57 1634.21 3173.35 1632.39L3231.65 1616.77Z"
              fill="#496809" fill-opacity="0.8"/>
        <path d="M2722.65 1939.77C2729.43 1937.96 2736.57 1937.96 2743.35 1939.77L2801.65 1955.39C2808.43 1957.21 2814.61 1960.78 2819.58 1965.75L2862.25 2008.42C2867.22 2013.39 2870.79 2019.57 2872.61 2026.35L2888.23 2084.65C2890.04 2091.43 2890.04 2098.57 2888.23 2105.35L2872.61 2163.65C2870.79 2170.43 2867.22 2176.61 2862.25 2181.58L2819.58 2224.25C2814.61 2229.22 2808.43 2232.79 2801.65 2234.61L2743.35 2250.23C2736.57 2252.04 2729.43 2252.04 2722.65 2250.23L2664.35 2234.61C2657.57 2232.79 2651.39 2229.22 2646.42 2224.25L2603.75 2181.58C2598.78 2176.61 2595.21 2170.43 2593.39 2163.65L2577.77 2105.35C2575.96 2098.57 2575.96 2091.43 2577.77 2084.65L2593.39 2026.35C2595.21 2019.57 2598.78 2013.39 2603.75 2008.42L2646.42 1965.75C2651.39 1960.78 2657.57 1957.21 2664.35 1955.39L2722.65 1939.77Z"
              fill="#496809" fill-opacity="0.8"/>
        <path d="M2474.65 1418.77C2481.43 1416.96 2488.57 1416.96 2495.35 1418.77L2553.65 1434.39C2560.43 1436.21 2566.61 1439.78 2571.58 1444.75L2614.25 1487.42C2619.22 1492.39 2622.79 1498.57 2624.61 1505.35L2640.23 1563.65C2642.04 1570.43 2642.04 1577.57 2640.23 1584.35L2624.61 1642.65C2622.79 1649.43 2619.22 1655.61 2614.25 1660.58L2571.58 1703.25C2566.61 1708.22 2560.43 1711.79 2553.65 1713.61L2495.35 1729.23C2488.57 1731.04 2481.43 1731.04 2474.65 1729.23L2416.35 1713.61C2409.57 1711.79 2403.39 1708.22 2398.42 1703.25L2355.75 1660.58C2350.78 1655.61 2347.21 1649.43 2345.39 1642.65L2329.77 1584.35C2327.96 1577.57 2327.96 1570.43 2329.77 1563.65L2345.39 1505.35C2347.21 1498.57 2350.78 1492.39 2355.75 1487.42L2398.42 1444.75C2403.39 1439.78 2409.57 1436.21 2416.35 1434.39L2474.65 1418.77Z"
              fill="#496809" fill-opacity="0.8"/>
        <path d="M1963.65 1532.77C1970.43 1530.96 1977.57 1530.96 1984.35 1532.77L2042.65 1548.39C2049.43 1550.21 2055.61 1553.78 2060.58 1558.75L2103.25 1601.42C2108.22 1606.39 2111.79 1612.57 2113.61 1619.35L2129.23 1677.65C2131.04 1684.43 2131.04 1691.57 2129.23 1698.35L2113.61 1756.65C2111.79 1763.43 2108.22 1769.61 2103.25 1774.58L2060.58 1817.25C2055.61 1822.22 2049.43 1825.79 2042.65 1827.61L1984.35 1843.23C1977.57 1845.04 1970.43 1845.04 1963.65 1843.23L1905.35 1827.61C1898.57 1825.79 1892.39 1822.22 1887.42 1817.25L1844.75 1774.58C1839.78 1769.61 1836.21 1763.43 1834.39 1756.65L1818.77 1698.35C1816.96 1691.57 1816.96 1684.43 1818.77 1677.65L1834.39 1619.35C1836.21 1612.57 1839.78 1606.39 1844.75 1601.42L1887.42 1558.75C1892.39 1553.78 1898.57 1550.21 1905.35 1548.39L1963.65 1532.77Z"
              fill="#496809" fill-opacity="0.8"/>
        <path d="M1045.65 1929.77C1052.43 1927.96 1059.57 1927.96 1066.35 1929.77L1124.65 1945.39C1131.43 1947.21 1137.61 1950.78 1142.58 1955.75L1185.25 1998.42C1190.22 2003.39 1193.79 2009.57 1195.61 2016.35L1211.23 2074.65C1213.04 2081.43 1213.04 2088.57 1211.23 2095.35L1195.61 2153.65C1193.79 2160.43 1190.22 2166.61 1185.25 2171.58L1142.58 2214.25C1137.61 2219.22 1131.43 2222.79 1124.65 2224.61L1066.35 2240.23C1059.57 2242.04 1052.43 2242.04 1045.65 2240.23L987.353 2224.61C980.571 2222.79 974.386 2219.22 969.421 2214.25L926.747 2171.58C921.782 2166.61 918.211 2160.43 916.394 2153.65L900.774 2095.35C898.957 2088.57 898.957 2081.43 900.774 2074.65L916.394 2016.35C918.211 2009.57 921.782 2003.39 926.747 1998.42L969.421 1955.75C974.386 1950.78 980.571 1947.21 987.353 1945.39L1045.65 1929.77Z"
              fill="#496809" fill-opacity="0.8"/>
        <path d="M2859.65 131.774C2866.43 129.957 2873.57 129.957 2880.35 131.774L2938.65 147.394C2945.43 149.211 2951.61 152.782 2956.58 157.747L2999.25 200.421C3004.22 205.386 3007.79 211.571 3009.61 218.353L3025.23 276.647C3027.04 283.429 3027.04 290.571 3025.23 297.353L3009.61 355.647C3007.79 362.429 3004.22 368.614 2999.25 373.579L2956.58 416.253C2951.61 421.218 2945.43 424.789 2938.65 426.606L2880.35 442.226C2873.57 444.043 2866.43 444.043 2859.65 442.226L2801.35 426.606C2794.57 424.789 2788.39 421.218 2783.42 416.253L2740.75 373.579C2735.78 368.614 2732.21 362.429 2730.39 355.647L2714.77 297.353C2712.96 290.571 2712.96 283.429 2714.77 276.647L2730.39 218.353C2732.21 211.571 2735.78 205.386 2740.75 200.421L2783.42 157.747C2788.39 152.782 2794.57 149.211 2801.35 147.394L2859.65 131.774Z"
              fill="#496809" fill-opacity="0.8"/>
        <path d="M2315.65 427.774C2322.43 425.957 2329.57 425.957 2336.35 427.774L2394.65 443.394C2401.43 445.211 2407.61 448.782 2412.58 453.747L2455.25 496.421C2460.22 501.386 2463.79 507.571 2465.61 514.353L2481.23 572.647C2483.04 579.429 2483.04 586.571 2481.23 593.353L2465.61 651.647C2463.79 658.429 2460.22 664.614 2455.25 669.579L2412.58 712.253C2407.61 717.218 2401.43 720.789 2394.65 722.606L2336.35 738.226C2329.57 740.043 2322.43 740.043 2315.65 738.226L2257.35 722.606C2250.57 720.789 2244.39 717.218 2239.42 712.253L2196.75 669.579C2191.78 664.614 2188.21 658.429 2186.39 651.647L2170.77 593.353C2168.96 586.571 2168.96 579.429 2170.77 572.647L2186.39 514.353C2188.21 507.571 2191.78 501.386 2196.75 496.421L2239.42 453.747C2244.39 448.782 2250.57 445.211 2257.35 443.394L2315.65 427.774Z"
              fill="#496809" fill-opacity="0.8"/>
        <path d="M2514.65 879.774C2521.43 877.957 2528.57 877.957 2535.35 879.774L2593.65 895.394C2600.43 897.211 2606.61 900.782 2611.58 905.747L2654.25 948.421C2659.22 953.386 2662.79 959.571 2664.61 966.353L2680.23 1024.65C2682.04 1031.43 2682.04 1038.57 2680.23 1045.35L2664.61 1103.65C2662.79 1110.43 2659.22 1116.61 2654.25 1121.58L2611.58 1164.25C2606.61 1169.22 2600.43 1172.79 2593.65 1174.61L2535.35 1190.23C2528.57 1192.04 2521.43 1192.04 2514.65 1190.23L2456.35 1174.61C2449.57 1172.79 2443.39 1169.22 2438.42 1164.25L2395.75 1121.58C2390.78 1116.61 2387.21 1110.43 2385.39 1103.65L2369.77 1045.35C2367.96 1038.57 2367.96 1031.43 2369.77 1024.65L2385.39 966.353C2387.21 959.571 2390.78 953.386 2395.75 948.421L2438.42 905.747C2443.39 900.782 2449.57 897.211 2456.35 895.394L2514.65 879.774Z"
              fill="#496809" fill-opacity="0.8"/>
        <path d="M198.647 1705.77C205.429 1703.96 212.571 1703.96 219.353 1705.77L277.647 1721.39C284.429 1723.21 290.614 1726.78 295.579 1731.75L338.253 1774.42C343.218 1779.39 346.789 1785.57 348.606 1792.35L364.226 1850.65C366.043 1857.43 366.043 1864.57 364.226 1871.35L348.606 1929.65C346.789 1936.43 343.218 1942.61 338.253 1947.58L295.579 1990.25C290.614 1995.22 284.429 1998.79 277.647 2000.61L219.353 2016.23C212.571 2018.04 205.429 2018.04 198.647 2016.23L140.353 2000.61C133.571 1998.79 127.386 1995.22 122.421 1990.25L79.7467 1947.58C74.7818 1942.61 71.2113 1936.43 69.394 1929.65L53.774 1871.35C51.9567 1864.57 51.9567 1857.43 53.774 1850.65L69.394 1792.35C71.2113 1785.57 74.7818 1779.39 79.7467 1774.42L122.421 1731.75C127.386 1726.78 133.571 1723.21 140.353 1721.39L198.647 1705.77Z"
              fill="#496809" fill-opacity="0.8"/>
        <path d="M753.647 1565.77C760.429 1563.96 767.571 1563.96 774.353 1565.77L832.647 1581.39C839.429 1583.21 845.614 1586.78 850.579 1591.75L893.253 1634.42C898.218 1639.39 901.789 1645.57 903.606 1652.35L919.226 1710.65C921.043 1717.43 921.043 1724.57 919.226 1731.35L903.606 1789.65C901.789 1796.43 898.218 1802.61 893.253 1807.58L850.579 1850.25C845.614 1855.22 839.429 1858.79 832.647 1860.61L774.353 1876.23C767.571 1878.04 760.429 1878.04 753.647 1876.23L695.353 1860.61C688.571 1858.79 682.386 1855.22 677.421 1850.25L634.747 1807.58C629.782 1802.61 626.211 1796.43 624.394 1789.65L608.774 1731.35C606.957 1724.57 606.957 1717.43 608.774 1710.65L624.394 1652.35C626.211 1645.57 629.782 1639.39 634.747 1634.42L677.421 1591.75C682.386 1586.78 688.571 1583.21 695.353 1581.39L753.647 1565.77Z"
              fill="#496809" fill-opacity="0.8"/>
        <path d="M94.6472 858.774C101.429 856.957 108.571 856.957 115.353 858.774L173.647 874.394C180.429 876.211 186.614 879.782 191.579 884.747L234.253 927.421C239.218 932.386 242.789 938.571 244.606 945.353L260.226 1003.65C262.043 1010.43 262.043 1017.57 260.226 1024.35L244.606 1082.65C242.789 1089.43 239.218 1095.61 234.253 1100.58L191.579 1143.25C186.614 1148.22 180.429 1151.79 173.647 1153.61L115.353 1169.23C108.571 1171.04 101.429 1171.04 94.6472 1169.23L36.3528 1153.61C29.5705 1151.79 23.3862 1148.22 18.4212 1143.25L-24.2533 1100.58C-29.2182 1095.61 -32.7887 1089.43 -34.606 1082.65L-50.226 1024.35C-52.0433 1017.57 -52.0433 1010.43 -50.226 1003.65L-34.606 945.353C-32.7887 938.571 -29.2182 932.386 -24.2533 927.421L18.4213 884.747C23.3862 879.782 29.5705 876.211 36.3528 874.394L94.6472 858.774Z"
              fill="#496809" fill-opacity="0.8"/>
        <path d="M645.647 -52.226C652.429 -54.0433 659.571 -54.0433 666.353 -52.226L724.647 -36.606C731.429 -34.7887 737.614 -31.2182 742.579 -26.2533L785.253 16.4212C790.218 21.3862 793.789 27.5705 795.606 34.3528L811.226 92.6472C813.043 99.4295 813.043 106.571 811.226 113.353L795.606 171.647C793.789 178.429 790.218 184.614 785.253 189.579L742.579 232.253C737.614 237.218 731.429 240.789 724.647 242.606L666.353 258.226C659.571 260.043 652.429 260.043 645.647 258.226L587.353 242.606C580.571 240.789 574.386 237.218 569.421 232.253L526.747 189.579C521.782 184.614 518.211 178.429 516.394 171.647L500.774 113.353C498.957 106.571 498.957 99.4295 500.774 92.6472L516.394 34.3528C518.211 27.5705 521.782 21.3862 526.747 16.4212L569.421 -26.2533C574.386 -31.2182 580.571 -34.7887 587.353 -36.606L645.647 -52.226Z"
              fill="#496809" fill-opacity="0.8"/>
        <path d="M1427.65 111.774C1434.43 109.957 1441.57 109.957 1448.35 111.774L1506.65 127.394C1513.43 129.211 1519.61 132.782 1524.58 137.747L1567.25 180.421C1572.22 185.386 1575.79 191.571 1577.61 198.353L1593.23 256.647C1595.04 263.429 1595.04 270.571 1593.23 277.353L1577.61 335.647C1575.79 342.429 1572.22 348.614 1567.25 353.579L1524.58 396.253C1519.61 401.218 1513.43 404.789 1506.65 406.606L1448.35 422.226C1441.57 424.043 1434.43 424.043 1427.65 422.226L1369.35 406.606C1362.57 404.789 1356.39 401.218 1351.42 396.253L1308.75 353.579C1303.78 348.614 1300.21 342.429 1298.39 335.647L1282.77 277.353C1280.96 270.571 1280.96 263.429 1282.77 256.647L1298.39 198.353C1300.21 191.571 1303.78 185.386 1308.75 180.421L1351.42 137.747C1356.39 132.782 1362.57 129.211 1369.35 127.394L1427.65 111.774Z"
              fill="#496809" fill-opacity="0.8"/>
        <path d="M1728.65 2087.77C1735.43 2085.96 1742.57 2085.96 1749.35 2087.77L1807.65 2103.39C1814.43 2105.21 1820.61 2108.78 1825.58 2113.75L1868.25 2156.42C1873.22 2161.39 1876.79 2167.57 1878.61 2174.35L1894.23 2232.65C1896.04 2239.43 1896.04 2246.57 1894.23 2253.35L1878.61 2311.65C1876.79 2318.43 1873.22 2324.61 1868.25 2329.58L1825.58 2372.25C1820.61 2377.22 1814.43 2380.79 1807.65 2382.61L1749.35 2398.23C1742.57 2400.04 1735.43 2400.04 1728.65 2398.23L1670.35 2382.61C1663.57 2380.79 1657.39 2377.22 1652.42 2372.25L1609.75 2329.58C1604.78 2324.61 1601.21 2318.43 1599.39 2311.65L1583.77 2253.35C1581.96 2246.57 1581.96 2239.43 1583.77 2232.65L1599.39 2174.35C1601.21 2167.57 1604.78 2161.39 1609.75 2156.42L1652.42 2113.75C1657.39 2108.78 1663.57 2105.21 1670.35 2103.39L1728.65 2087.77Z"
              fill="#496809" fill-opacity="0.8"/>
        <path d="M2306.65 2255.77C2313.43 2253.96 2320.57 2253.96 2327.35 2255.77L2385.65 2271.39C2392.43 2273.21 2398.61 2276.78 2403.58 2281.75L2446.25 2324.42C2451.22 2329.39 2454.79 2335.57 2456.61 2342.35L2472.23 2400.65C2474.04 2407.43 2474.04 2414.57 2472.23 2421.35L2456.61 2479.65C2454.79 2486.43 2451.22 2492.61 2446.25 2497.58L2403.58 2540.25C2398.61 2545.22 2392.43 2548.79 2385.65 2550.61L2327.35 2566.23C2320.57 2568.04 2313.43 2568.04 2306.65 2566.23L2248.35 2550.61C2241.57 2548.79 2235.39 2545.22 2230.42 2540.25L2187.75 2497.58C2182.78 2492.61 2179.21 2486.43 2177.39 2479.65L2161.77 2421.35C2159.96 2414.57 2159.96 2407.43 2161.77 2400.65L2177.39 2342.35C2179.21 2335.57 2182.78 2329.39 2187.75 2324.42L2230.42 2281.75C2235.39 2276.78 2241.57 2273.21 2248.35 2271.39L2306.65 2255.77Z"
              fill="#496809" fill-opacity="0.8"/>
        <path d="M487.647 2312.77C494.429 2310.96 501.571 2310.96 508.353 2312.77L566.647 2328.39C573.429 2330.21 579.614 2333.78 584.579 2338.75L627.253 2381.42C632.218 2386.39 635.789 2392.57 637.606 2399.35L653.226 2457.65C655.043 2464.43 655.043 2471.57 653.226 2478.35L637.606 2536.65C635.789 2543.43 632.218 2549.61 627.253 2554.58L584.579 2597.25C579.614 2602.22 573.429 2605.79 566.647 2607.61L508.353 2623.23C501.571 2625.04 494.429 2625.04 487.647 2623.23L429.353 2607.61C422.571 2605.79 416.386 2602.22 411.421 2597.25L368.747 2554.58C363.782 2549.61 360.211 2543.43 358.394 2536.65L342.774 2478.35C340.957 2471.57 340.957 2464.43 342.774 2457.65L358.394 2399.35C360.211 2392.57 363.782 2386.39 368.747 2381.42L411.421 2338.75C416.386 2333.78 422.571 2330.21 429.353 2328.39L487.647 2312.77Z"
              fill="#496809" fill-opacity="0.8"/>
        <path d="M3439.65 2205.77C3446.43 2203.96 3453.57 2203.96 3460.35 2205.77L3518.65 2221.39C3525.43 2223.21 3531.61 2226.78 3536.58 2231.75L3579.25 2274.42C3584.22 2279.39 3587.79 2285.57 3589.61 2292.35L3605.23 2350.65C3607.04 2357.43 3607.04 2364.57 3605.23 2371.35L3589.61 2429.65C3587.79 2436.43 3584.22 2442.61 3579.25 2447.58L3536.58 2490.25C3531.61 2495.22 3525.43 2498.79 3518.65 2500.61L3460.35 2516.23C3453.57 2518.04 3446.43 2518.04 3439.65 2516.23L3381.35 2500.61C3374.57 2498.79 3368.39 2495.22 3363.42 2490.25L3320.75 2447.58C3315.78 2442.61 3312.21 2436.43 3310.39 2429.65L3294.77 2371.35C3292.96 2364.57 3292.96 2357.43 3294.77 2350.65L3310.39 2292.35C3312.21 2285.57 3315.78 2279.39 3320.75 2274.42L3363.42 2231.75C3368.39 2226.78 3374.57 2223.21 3381.35 2221.39L3439.65 2205.77Z"
              fill="#496809" fill-opacity="0.8"/>
    </g>
    <defs>
        <clipPath id="clip0">
            <rect width="3737" height="2595" fill="white"/>
        </clipPath>
    </defs>
</svg>
