<svg width="3737" height="2595" viewBox="0 0 3737 2595" fill="none" xmlns="http://www.w3.org/2000/svg">
    <rect x="380" y="1846" width="848" height="30" fill="#000000"/>
    <rect x="380" y="350" width="2405" height="30" fill="#000000"/>
    <rect x="350" y="350" width="30" height="1526" fill="#000000"/>
    <rect x="2785" y="350" width="30" height="404" fill="#000000"/>
    <rect x="2785" y="890" width="30" height="986" fill="#000000"/>
    <rect x="1364" y="1846" width="1421" height="30" fill="#000000"/>
    <rect x="528" y="624" width="24" height="108" fill="#000000"/>
    <rect x="528" y="798" width="24" height="85" fill="#000000"/>
    <rect x="528" y="949" width="24" height="245" fill="#000000"/>
    <rect x="528" y="1260" width="24" height="79" fill="#000000"/>
    <rect x="528" y="1405" width="24" height="81" fill="#000000"/>
    <rect x="552" y="1462" width="122" height="24" fill="#000000"/>
    <rect x="740" y="1462" width="77" height="24" fill="#000000"/>
    <rect x="883" y="1462" width="243" height="24" fill="#000000"/>
    <rect x="1192" y="1462" width="36" height="24" fill="#000000"/>
    <rect x="1364" y="1462" width="36" height="24" fill="#000000"/>
    <rect x="1466" y="1462" width="535" height="24" fill="#000000"/>
    <rect x="2001" y="1346" width="25" height="140" fill="#000000"/>
    <rect x="2001" y="1080" width="24" height="200" fill="#000000"/>
    <rect x="2001" y="741" width="24" height="273" fill="#000000"/>
    <rect x="2001" y="624" width="24" height="51" fill="#000000"/>
    <rect x="1914" y="624" width="87" height="24" fill="#000000"/>
    <rect x="1704" y="624" width="144" height="24" fill="#000000"/>
    <rect x="1524" y="624" width="114" height="24" fill="#000000"/>
    <rect x="1524" y="648" width="24" height="68" fill="#000000"/>
    <rect x="1042" y="692" width="482" height="24" fill="#000000"/>
    <rect x="1018" y="552" width="24" height="164" fill="#000000"/>
    <rect x="552" y="624" width="118" height="24" fill="#000000"/>
    <rect x="646" y="552" width="24" height="72" fill="#000000"/>
    <rect x="646" y="528" width="396" height="24" fill="#000000"/>
    <rect x="1228" y="1465" width="68" height="18" fill="#000000"/>
    <rect x="1296" y="1465" width="68" height="18" fill="#000000"/>
    <rect x="552" y="988" width="328" height="12" fill="#000000"/>
    <rect x="980" y="988" width="72" height="12" fill="#000000"/>
    <rect x="1052" y="716" width="12" height="452" fill="#000000"/>
    <rect x="1236" y="1108" width="361" height="12" fill="#000000"/>
    <rect x="1697" y="1108" width="304" height="12" fill="#000000"/>
    <rect x="1064" y="1108" width="72" height="12" fill="#000000"/>
    <rect x="1530" y="1120" width="12" height="342" fill="#000000"/>
    <rect x="825" y="1000" width="12" height="168" fill="#000000"/>
    <rect x="773" y="1268" width="12" height="194" fill="#000000"/>
    <rect x="1052" y="1268" width="12" height="194" fill="#000000"/>
    <rect x="785" y="1268" width="77" height="12" fill="#000000"/>
    <rect x="962" y="1268" width="90" height="12" fill="#000000"/>
    <circle cx="2733" cy="2095" r="50" fill="#000000"/>
    <circle cx="2485" cy="1574" r="50" fill="#000000"/>
    <circle cx="1056" cy="2085" r="50" fill="#000000"/>
    <circle cx="1974" cy="1688" r="50" fill="#000000"/>
    <circle cx="3242" cy="1772" r="50" fill="#000000"/>
    <circle cx="3060" cy="1212" r="50" fill="#000000"/>
    <circle cx="3207" cy="652" r="50" fill="#000000"/>
    <circle cx="2870" cy="287" r="50" fill="#000000"/>
    <circle cx="2326" cy="583" r="50" fill="#000000"/>
    <circle cx="2525" cy="1035" r="50" fill="#000000"/>
    <circle cx="209" cy="1861" r="50" fill="#000000"/>
    <circle cx="764" cy="1721" r="50" fill="#000000"/>
    <circle cx="498" cy="2468" r="50" fill="#000000"/>
    <circle cx="2317" cy="2411" r="50" fill="#000000"/>
    <circle cx="1739" cy="2243" r="50" fill="#000000"/>
    <circle cx="1438" cy="267" r="50" fill="#000000"/>
    <circle cx="656" cy="103" r="50" fill="#000000"/>
    <circle cx="105" cy="1014" r="50" fill="#000000"/>
    <circle cx="3450" cy="2361" r="50" fill="#000000"/>
    <rect x="670" y="552" width="118" height="60" fill="#000000"/>
    <rect x="900" y="552" width="118" height="60" fill="#000000"/>
    <rect x="552" y="648" width="94" height="60" fill="#000000"/>
</svg>
