<svg width="38" height="32" viewBox="0 0 38 32" fill="none" xmlns="http://www.w3.org/2000/svg">
<g clip-path="url(#clip0)">
<circle cx="16" cy="16" r="16" transform="rotate(-90 16 16)" fill="#8C8C8C"/>
<circle cx="16" cy="16" r="12" transform="rotate(-90 16 16)" fill="#3E3E3E"/>
<rect x="32" y="23" width="5" height="6" transform="rotate(-90 32 23)" fill="#1A1A1A"/>
<rect x="32" y="14" width="5" height="6" transform="rotate(-90 32 14)" fill="#1A1A1A"/>
<rect x="4" y="18" width="4" height="24" transform="rotate(-90 4 18)" fill="#8C8C8C"/>
<path d="M28 25C28 25 30.1 21.0625 30.1 16C30.1 10.9375 28 7 28 7L32.9 7C32.9 7 35 10.375 35 16C35 21.625 32.9 25 32.9 25L28 25Z" fill="#1A1A1A"/>
</g>
<defs>
<clipPath id="clip0">
<rect width="32" height="38" fill="white" transform="translate(0 32) rotate(-90)"/>
</clipPath>
</defs>
</svg>
